<?xml version="1.0" standalone="no"?>
<!DOCTYPE svg PUBLIC "-//W3C//DTD SVG 20010904//EN"
 "http://www.w3.org/TR/2001/REC-SVG-20010904/DTD/svg10.dtd">
<svg version="1.0" xmlns="http://www.w3.org/2000/svg"
 width="70.000000pt" height="70.000000pt" viewBox="0 0 70.000000 70.000000"
 preserveAspectRatio="xMidYMid meet">
<metadata>
Created by potrace 1.14, written by Peter Selinger 2001-2017
</metadata>
<g transform="translate(0.000000,70.000000) scale(0.100000,-0.100000)"
fill="#000000" stroke="none">
<path d="M371 681 l-94 -6 -13 -40 c-6 -22 -30 -100 -53 -173 -23 -74 -41
-138 -41 -143 0 -5 25 -9 55 -9 30 0 55 -4 55 -10 0 -5 -20 -71 -45 -146 -25
-75 -43 -139 -40 -142 8 -8 50 35 81 82 15 22 51 66 79 96 46 48 73 82 165
202 11 14 20 29 20 32 0 3 -27 6 -60 6 -33 0 -60 3 -60 7 0 3 27 60 60 125 33
66 60 122 60 124 0 4 -15 4 -169 -5z"/>
</g>
</svg>
